<svg xmlns="http://www.w3.org/2000/svg" viewBox="0 0 182 28" fill="#fff">
  <!-- Original 5 x 7 dot lettering matching the existing Freqx wordmarks. -->
  <circle cx="2" cy="2" r="1.3"/>
  <circle cx="6" cy="2" r="1.3"/>
  <circle cx="10" cy="2" r="1.3"/>
  <circle cx="14" cy="2" r="1.3"/>
  <circle cx="2" cy="6" r="1.3"/>
  <circle cx="18" cy="6" r="1.3"/>
  <circle cx="2" cy="10" r="1.3"/>
  <circle cx="18" cy="10" r="1.3"/>
  <circle cx="2" cy="14" r="1.3"/>
  <circle cx="18" cy="14" r="1.3"/>
  <circle cx="2" cy="18" r="1.3"/>
  <circle cx="18" cy="18" r="1.3"/>
  <circle cx="2" cy="22" r="1.3"/>
  <circle cx="18" cy="22" r="1.3"/>
  <circle cx="2" cy="26" r="1.3"/>
  <circle cx="6" cy="26" r="1.3"/>
  <circle cx="10" cy="26" r="1.3"/>
  <circle cx="14" cy="26" r="1.3"/>
  <circle cx="26" cy="2" r="1.3"/>
  <circle cx="30" cy="2" r="1.3"/>
  <circle cx="34" cy="2" r="1.3"/>
  <circle cx="30" cy="6" r="1.3"/>
  <circle cx="30" cy="10" r="1.3"/>
  <circle cx="30" cy="14" r="1.3"/>
  <circle cx="30" cy="18" r="1.3"/>
  <circle cx="30" cy="22" r="1.3"/>
  <circle cx="26" cy="26" r="1.3"/>
  <circle cx="30" cy="26" r="1.3"/>
  <circle cx="34" cy="26" r="1.3"/>
  <circle cx="46" cy="2" r="1.3"/>
  <circle cx="50" cy="2" r="1.3"/>
  <circle cx="54" cy="2" r="1.3"/>
  <circle cx="58" cy="2" r="1.3"/>
  <circle cx="42" cy="6" r="1.3"/>
  <circle cx="42" cy="10" r="1.3"/>
  <circle cx="46" cy="14" r="1.3"/>
  <circle cx="50" cy="14" r="1.3"/>
  <circle cx="54" cy="14" r="1.3"/>
  <circle cx="58" cy="18" r="1.3"/>
  <circle cx="58" cy="22" r="1.3"/>
  <circle cx="42" cy="26" r="1.3"/>
  <circle cx="46" cy="26" r="1.3"/>
  <circle cx="50" cy="26" r="1.3"/>
  <circle cx="54" cy="26" r="1.3"/>
  <circle cx="70" cy="2" r="1.3"/>
  <circle cx="74" cy="2" r="1.3"/>
  <circle cx="78" cy="2" r="1.3"/>
  <circle cx="82" cy="2" r="1.3"/>
  <circle cx="66" cy="6" r="1.3"/>
  <circle cx="66" cy="10" r="1.3"/>
  <circle cx="66" cy="14" r="1.3"/>
  <circle cx="66" cy="18" r="1.3"/>
  <circle cx="66" cy="22" r="1.3"/>
  <circle cx="70" cy="26" r="1.3"/>
  <circle cx="74" cy="26" r="1.3"/>
  <circle cx="78" cy="26" r="1.3"/>
  <circle cx="82" cy="26" r="1.3"/>
  <circle cx="94" cy="2" r="1.3"/>
  <circle cx="98" cy="2" r="1.3"/>
  <circle cx="102" cy="2" r="1.3"/>
  <circle cx="90" cy="6" r="1.3"/>
  <circle cx="106" cy="6" r="1.3"/>
  <circle cx="90" cy="10" r="1.3"/>
  <circle cx="106" cy="10" r="1.3"/>
  <circle cx="90" cy="14" r="1.3"/>
  <circle cx="106" cy="14" r="1.3"/>
  <circle cx="90" cy="18" r="1.3"/>
  <circle cx="106" cy="18" r="1.3"/>
  <circle cx="90" cy="22" r="1.3"/>
  <circle cx="106" cy="22" r="1.3"/>
  <circle cx="94" cy="26" r="1.3"/>
  <circle cx="98" cy="26" r="1.3"/>
  <circle cx="102" cy="26" r="1.3"/>
  <circle cx="114" cy="2" r="1.3"/>
  <circle cx="130" cy="2" r="1.3"/>
  <circle cx="114" cy="6" r="1.3"/>
  <circle cx="130" cy="6" r="1.3"/>
  <circle cx="114" cy="10" r="1.3"/>
  <circle cx="130" cy="10" r="1.3"/>
  <circle cx="114" cy="14" r="1.3"/>
  <circle cx="130" cy="14" r="1.3"/>
  <circle cx="114" cy="18" r="1.3"/>
  <circle cx="130" cy="18" r="1.3"/>
  <circle cx="118" cy="22" r="1.3"/>
  <circle cx="126" cy="22" r="1.3"/>
  <circle cx="122" cy="26" r="1.3"/>
  <circle cx="138" cy="2" r="1.3"/>
  <circle cx="142" cy="2" r="1.3"/>
  <circle cx="146" cy="2" r="1.3"/>
  <circle cx="150" cy="2" r="1.3"/>
  <circle cx="154" cy="2" r="1.3"/>
  <circle cx="138" cy="6" r="1.3"/>
  <circle cx="138" cy="10" r="1.3"/>
  <circle cx="138" cy="14" r="1.3"/>
  <circle cx="142" cy="14" r="1.3"/>
  <circle cx="146" cy="14" r="1.3"/>
  <circle cx="150" cy="14" r="1.3"/>
  <circle cx="138" cy="18" r="1.3"/>
  <circle cx="138" cy="22" r="1.3"/>
  <circle cx="138" cy="26" r="1.3"/>
  <circle cx="142" cy="26" r="1.3"/>
  <circle cx="146" cy="26" r="1.3"/>
  <circle cx="150" cy="26" r="1.3"/>
  <circle cx="154" cy="26" r="1.3"/>
  <circle cx="162" cy="2" r="1.3"/>
  <circle cx="166" cy="2" r="1.3"/>
  <circle cx="170" cy="2" r="1.3"/>
  <circle cx="174" cy="2" r="1.3"/>
  <circle cx="162" cy="6" r="1.3"/>
  <circle cx="178" cy="6" r="1.3"/>
  <circle cx="162" cy="10" r="1.3"/>
  <circle cx="178" cy="10" r="1.3"/>
  <circle cx="162" cy="14" r="1.3"/>
  <circle cx="166" cy="14" r="1.3"/>
  <circle cx="170" cy="14" r="1.3"/>
  <circle cx="174" cy="14" r="1.3"/>
  <circle cx="162" cy="18" r="1.3"/>
  <circle cx="170" cy="18" r="1.3"/>
  <circle cx="162" cy="22" r="1.3"/>
  <circle cx="174" cy="22" r="1.3"/>
  <circle cx="162" cy="26" r="1.3"/>
  <circle cx="178" cy="26" r="1.3"/>
</svg>
