<svg xmlns="http://www.w3.org/2000/svg" viewBox="0 0 116 28" fill="#fff">
  <!-- Original 5 x 7 dot lettering for Freqx. -->
  <circle cx="2" cy="2" r="1.3"/>
  <circle cx="6" cy="2" r="1.3"/>
  <circle cx="10" cy="2" r="1.3"/>
  <circle cx="14" cy="2" r="1.3"/>
  <circle cx="18" cy="2" r="1.3"/>
  <circle cx="2" cy="6" r="1.3"/>
  <circle cx="2" cy="10" r="1.3"/>
  <circle cx="2" cy="14" r="1.3"/>
  <circle cx="6" cy="14" r="1.3"/>
  <circle cx="10" cy="14" r="1.3"/>
  <circle cx="14" cy="14" r="1.3"/>
  <circle cx="2" cy="18" r="1.3"/>
  <circle cx="2" cy="22" r="1.3"/>
  <circle cx="2" cy="26" r="1.3"/>
  <circle cx="26" cy="2" r="1.3"/>
  <circle cx="30" cy="2" r="1.3"/>
  <circle cx="34" cy="2" r="1.3"/>
  <circle cx="38" cy="2" r="1.3"/>
  <circle cx="26" cy="6" r="1.3"/>
  <circle cx="42" cy="6" r="1.3"/>
  <circle cx="26" cy="10" r="1.3"/>
  <circle cx="42" cy="10" r="1.3"/>
  <circle cx="26" cy="14" r="1.3"/>
  <circle cx="30" cy="14" r="1.3"/>
  <circle cx="34" cy="14" r="1.3"/>
  <circle cx="38" cy="14" r="1.3"/>
  <circle cx="26" cy="18" r="1.3"/>
  <circle cx="34" cy="18" r="1.3"/>
  <circle cx="26" cy="22" r="1.3"/>
  <circle cx="38" cy="22" r="1.3"/>
  <circle cx="26" cy="26" r="1.3"/>
  <circle cx="42" cy="26" r="1.3"/>
  <circle cx="50" cy="2" r="1.3"/>
  <circle cx="54" cy="2" r="1.3"/>
  <circle cx="58" cy="2" r="1.3"/>
  <circle cx="62" cy="2" r="1.3"/>
  <circle cx="66" cy="2" r="1.3"/>
  <circle cx="50" cy="6" r="1.3"/>
  <circle cx="50" cy="10" r="1.3"/>
  <circle cx="50" cy="14" r="1.3"/>
  <circle cx="54" cy="14" r="1.3"/>
  <circle cx="58" cy="14" r="1.3"/>
  <circle cx="62" cy="14" r="1.3"/>
  <circle cx="50" cy="18" r="1.3"/>
  <circle cx="50" cy="22" r="1.3"/>
  <circle cx="50" cy="26" r="1.3"/>
  <circle cx="54" cy="26" r="1.3"/>
  <circle cx="58" cy="26" r="1.3"/>
  <circle cx="62" cy="26" r="1.3"/>
  <circle cx="66" cy="26" r="1.3"/>
  <circle cx="78" cy="2" r="1.3"/>
  <circle cx="82" cy="2" r="1.3"/>
  <circle cx="86" cy="2" r="1.3"/>
  <circle cx="74" cy="6" r="1.3"/>
  <circle cx="90" cy="6" r="1.3"/>
  <circle cx="74" cy="10" r="1.3"/>
  <circle cx="90" cy="10" r="1.3"/>
  <circle cx="74" cy="14" r="1.3"/>
  <circle cx="90" cy="14" r="1.3"/>
  <circle cx="74" cy="18" r="1.3"/>
  <circle cx="82" cy="18" r="1.3"/>
  <circle cx="90" cy="18" r="1.3"/>
  <circle cx="74" cy="22" r="1.3"/>
  <circle cx="86" cy="22" r="1.3"/>
  <circle cx="78" cy="26" r="1.3"/>
  <circle cx="82" cy="26" r="1.3"/>
  <circle cx="90" cy="26" r="1.3"/>
  <circle cx="98" cy="2" r="1.3"/>
  <circle cx="114" cy="2" r="1.3"/>
  <circle cx="98" cy="6" r="1.3"/>
  <circle cx="114" cy="6" r="1.3"/>
  <circle cx="102" cy="10" r="1.3"/>
  <circle cx="110" cy="10" r="1.3"/>
  <circle cx="106" cy="14" r="1.3"/>
  <circle cx="102" cy="18" r="1.3"/>
  <circle cx="110" cy="18" r="1.3"/>
  <circle cx="98" cy="22" r="1.3"/>
  <circle cx="114" cy="22" r="1.3"/>
  <circle cx="98" cy="26" r="1.3"/>
  <circle cx="114" cy="26" r="1.3"/>
</svg>
